0
SECTION
2
HEADER
9
$INSUNITS
70
4
0
ENDSEC
0
SECTION
2
TABLES
0
TABLE
2
LTYPE
0
LTYPE
72
65
70
64
2
CONTINUOUS
3
______
73
0
40
0
0
ENDTAB
0
TABLE
2
LAYER
0
ENDTAB
0
ENDSEC
0
SECTION
2
ENTITIES
0
LINE
8
0
10
-8.5
20
-10
11
27.5
21
-10
0
LINE
8
0
10
-10.5
20
-8
11
-10.5
21
65
0
LINE
8
0
10
-8.5
20
67
11
25.5
21
67
0
LINE
8
0
10
29.5
20
-8
11
29.5
21
-2
0
LINE
8
0
10
31.5
20
0
11
46.5
21
0
0
LINE
8
0
10
48.5
20
2
11
48.5
21
3
0
LINE
8
0
10
44.5
20
77
11
29.5
21
77
0
LINE
8
0
10
27.5
20
75
11
27.5
21
69
0
LINE
8
0
10
50.5
20
5
11
63.5
21
5
0
LINE
8
0
10
67.5
20
79
11
67.5
21
80
0
LINE
8
0
10
65.5
20
82
11
48.5
21
82
0
LINE
8
0
10
46.5
20
80
11
46.5
21
79
0
LINE
8
0
10
67.5
20
0
11
82.5
21
0
0
LINE
8
0
10
65.5
20
3
11
65.5
21
2
0
LINE
8
0
10
86.5
20
75
11
86.5
21
77
0
LINE
8
0
10
86.5
20
77
11
69.5
21
77
0
LINE
8
0
10
84.5
20
-4
11
101.5
21
-4
0
LINE
8
0
10
84.5
20
-2
11
84.5
21
-4
0
LINE
8
0
10
105.5
20
71
11
105.5
21
73
0
LINE
8
0
10
105.5
20
73
11
88.5
21
73
0
LINE
8
0
10
103.5
20
-8
11
122.5
21
-8
0
LINE
8
0
10
124.5
20
-6
11
124.5
21
67
0
LINE
8
0
10
103.5
20
-6
11
103.5
21
-8
0
LINE
8
0
10
122.5
20
69
11
107.5
21
69
0
LINE
8
0
10
60.5
20
-44
11
77.5
21
-44
0
LINE
8
0
10
79.5
20
-42
11
79.5
21
-7
0
LINE
8
0
10
58.5
20
-42
11
58.5
21
-7
0
LINE
8
0
10
77.5
20
-5
11
60.5
21
-5
0
LINE
8
0
10
83.5694233
20
-35.0302446
11
100.4427079
21
-37.1020234
0
LINE
8
0
10
102.6715388
20
-35.3606697
11
104.6214482
21
-19.4799313
0
LINE
8
0
10
102.8800945
20
-17.2511004
11
86.0068099
21
-15.1793216
0
LINE
8
0
10
83.777979
20
-16.9206753
11
81.8280696
21
-32.8014137
0
LINE
8
0
10
103.357461
20
-46.6871446
11
119.6146419
21
-51.6574636
0
LINE
8
0
10
122.1119948
20
-50.3295975
11
132.3450045
21
-16.8589309
0
LINE
8
0
10
102.0295949
20
-44.1897917
11
112.2626046
21
-10.7191251
0
LINE
8
0
10
131.0171384
20
-14.361578
11
114.7599575
21
-9.391259
0
ARC
8
0
10
27.5
20
-8
40
2
50
270
51
0
0
ARC
8
0
10
31.5
20
-2
40
2
50
90
51
180
0
ARC
8
0
10
46.5
20
2
40
2
50
270
51
0
0
ARC
8
0
10
50.5
20
3
40
2
50
90
51
180
0
ARC
8
0
10
63.5
20
3
40
2
50
0
51
90
0
ARC
8
0
10
67.5
20
2
40
2
50
180
51
270
0
ARC
8
0
10
82.5
20
-2
40
2
50
0
51
90
0
ARC
8
0
10
101.5
20
-6
40
2
50
0
51
90
0
ARC
8
0
10
122.5
20
-6
40
2
50
270
51
0
0
ARC
8
0
10
122.5
20
67
40
2
50
0
51
90
0
ARC
8
0
10
107.5
20
71
40
2
50
180
51
270
0
ARC
8
0
10
88.5
20
75
40
2
50
180
51
270
0
ARC
8
0
10
69.5
20
79
40
2
50
180
51
270
0
ARC
8
0
10
65.5
20
80
40
2
50
0
51
90
0
ARC
8
0
10
48.5
20
80
40
2
50
90
51
180
0
ARC
8
0
10
44.5
20
79
40
2
50
270
51
0
0
ARC
8
0
10
29.5
20
75
40
2
50
90
51
180
0
ARC
8
0
10
25.5
20
69
40
2
50
270
51
0
0
ARC
8
0
10
-8.5
20
65
40
2
50
90
51
180
0
ARC
8
0
10
-8.5
20
-8
40
2
50
180
51
270
0
ARC
8
0
10
120.1993853
20
-49.7448541
40
2
50
253.000001
51
343.000001
0
ARC
8
0
10
130.432395
20
-16.2741875
40
2
50
343.000001
51
73.000001
0
ARC
8
0
10
114.1752141
20
-11.3038685
40
2
50
73.000001
51
163.000001
0
ARC
8
0
10
103.9422044
20
-44.7745351
40
2
50
163.000001
51
253.000001
0
ARC
8
0
10
77.5
20
-42
40
2
50
270
51
0
0
ARC
8
0
10
77.5
20
-7
40
2
50
0
51
90
0
ARC
8
0
10
60.5
20
-7
40
2
50
90
51
180
0
ARC
8
0
10
60.5
20
-42
40
2
50
180
51
270
0
ARC
8
0
10
100.6864465
20
-35.1169311
40
2
50
263.0000028
51
353.0000028
0
ARC
8
0
10
102.6363559
20
-19.2361927
40
2
50
353.0000028
51
83.0000028
0
ARC
8
0
10
85.7630713
20
-17.1644139
40
2
50
83.0000028
51
173.0000028
0
ARC
8
0
10
83.8131619
20
-33.0451523
40
2
50
173.0000028
51
263.0000028
0
ENDSEC
0
EOF